<svg width="31" height="37" viewBox="0 0 31 37" fill="none" xmlns="http://www.w3.org/2000/svg">
<path d="M17.4863 18.8047L9.43396 18.8451L5.33789 21.417C3.87106 23.9581 2.40422 26.4993 0.937378 29.0404L17.4863 18.8047V18.8047Z" fill="#974995"/>
<path d="M0.937378 8.52539V29.0404L5.33789 21.417V15.9629L0.937378 8.52539V8.52539Z" fill="#5A58A3"/>
<path d="M30.544 26.7964L22.1245 26.7183L18.0091 29.3115L13.6086 36.9416L30.544 26.7964V26.7964Z" fill="#037F36"/>
<path d="M13.6086 16.4272V36.9423L18.0091 29.3189V23.8647L13.6086 16.4272V16.4272Z" fill="#62B22F"/>
<path d="M30.544 10.9702L22.1245 10.8926L18.0091 13.4858L13.6086 21.1151L30.544 10.9702V10.9702Z" fill="#DA0853"/>
<path d="M13.6086 0.601074V21.1154L18.0133 19.5287C18.0118 15.6987 18.0104 11.8687 18.0091 8.03855L13.6086 0.601074V0.601074Z" fill="#FBB61B"/>
<path d="M17.9977 8.03681L22.1245 10.8928L30.544 10.9704L13.6086 0.601074L17.9977 8.03681H17.9977Z" fill="#EE7024"/>
<path d="M5.27591 16.2723L22.1245 26.7182L30.544 26.7958L0.937378 8.52441L5.27591 16.2723V16.2723Z" fill="#2188CA"/>
</svg>
